<svg id="Icons" height="512" viewBox="0 0 74 74" width="512" xmlns="http://www.w3.org/2000/svg"><path d="m37 72a35 35 0 1 1 35-35 35.04 35.04 0 0 1 -35 35zm0-68a33 33 0 1 0 33 33 33.038 33.038 0 0 0 -33-33z"/><path d="m37 38a1.014 1.014 0 0 1 -.3-.046 1 1 0 0 1 -.653-1.255c5.725-18.131-9.247-31.407-9.397-31.539a1 1 0 0 1 1.31-1.512c.162.141 16.121 14.251 9.994 33.653a1 1 0 0 1 -.954.699z"/><path d="m48.45 45.661a1 1 0 0 1 -.946-1.325c6.109-17.86-1.9-33.044-7.218-40.5a1 1 0 0 1 1.629-1.162c5.54 7.774 13.879 23.608 7.481 42.315a1 1 0 0 1 -.946.672z"/><path d="m58.379 47.451a1.012 1.012 0 0 1 -.392-.081 1 1 0 0 1 -.527-1.313c6.759-15.814.73-30.279-3.46-37.494a1 1 0 1 1 1.728-1.005c4.38 7.542 10.672 22.668 3.572 39.285a1 1 0 0 1 -.921.608z"/><path d="m5.721 51.324a1 1 0 0 1 -.909-1.415c3.962-8.685 13.505-23.824 32.9-27.637a1 1 0 0 1 .386 1.963c-18.519 3.64-27.664 18.165-31.467 26.504a1 1 0 0 1 -.91.585z"/><path d="m3.006 37a1 1 0 0 1 -.866-1.5c4.337-7.566 14.293-20.581 32.235-22.738a1 1 0 0 1 .239 1.985c-17.075 2.058-26.588 14.512-30.739 21.753a1 1 0 0 1 -.869.5z"/><path d="m58.76 58.685c-9.933 0-24.083-2.581-34.872-14.941a1 1 0 0 1 1.512-1.316c12.413 14.22 29.566 14.881 38.688 14a1 1 0 0 1 .191 1.991c-1.622.157-3.479.266-5.519.266z"/><path d="m37.35 65.491a1 1 0 0 1 -.307-.049c-.91-.294-1.851-.643-2.876-1.068a1 1 0 0 1 .766-1.848c.975.4 1.866.736 2.724 1.013a1 1 0 0 1 -.307 1.952z"/><path d="m20.61 54.77a1 1 0 0 1 -.735-.321 38.03 38.03 0 0 1 -2.547-3.061 1 1 0 1 1 1.6-1.2 35.754 35.754 0 0 0 2.412 2.9 1 1 0 0 1 -.734 1.679z"/><path d="m28.309 61.23a.992.992 0 0 1 -.535-.156c-.909-.576-1.725-1.137-2.494-1.714a1 1 0 1 1 1.2-1.6c.727.545 1.5 1.077 2.366 1.626a1 1 0 0 1 -.537 1.844z"/><path d="m52.911 67.94a52.91 52.91 0 0 1 -8.594-.7 1 1 0 1 1 .326-1.974 51 51 0 0 0 8.482.677h.005a1 1 0 0 1 0 2z"/><path d="m13.62 62.694a1.027 1.027 0 0 1 -.19-.018 1 1 0 0 1 -.793-1.171c.04-.21 4.28-21.087 24.147-25.482a1 1 0 0 1 .432 1.954c-18.598 4.113-22.577 23.709-22.616 23.906a1 1 0 0 1 -.98.811z"/><path d="m59.393 47.428c-6.943 0-15.925-1.882-23.131-9.753a1 1 0 0 1 1.476-1.35c12.839 14.024 31.822 7.7 32.012 7.632a1 1 0 0 1 .653 1.89 37.659 37.659 0 0 1 -11.01 1.581z"/></svg>